<svg xmlns="http://www.w3.org/2000/svg" viewBox="0 0 807.87 207.33"><defs><style>.cls-1{fill:#1d1d1b;}</style></defs><g id="Layer_2" data-name="Layer 2"><g id="Layer_2-2" data-name="Layer 2"><path class="cls-1" d="M770.43,141.87h-9.51V130.66L807.87,0h-34L737,102.47,725.67,71,751.18,0h-34l-8.51,23.75L700.16,0h-34l25.51,71-11.33,31.44L643.46,0h-34l12.14,33.8A84.27,84.27,0,0,0,614.74,24Q595.46,0,568.06,0T521.2,24A85,85,0,0,0,503,66.75,84.71,84.71,0,0,0,484.54,24Q465.27,0,437.86,0H381.17V157.24L324.66,0H300.1L254.93,125.76H243.59V0H213.35V62.88H168l-13.23,37.26h58.58V163h62.18L312.38,60.55l23.43,65.21H292.54L305.76,163h132.1q27.39,0,46.68-23.75a85.82,85.82,0,0,0,18.42-43,86.11,86.11,0,0,0,18.24,43Q540.66,163,568.06,163t46.68-23.75q19.46-24,19.47-57.76A106.24,106.24,0,0,0,633,65.62L668,163H692.6l16.06-44.71L724.72,163h24.57l5.81-16.18V163h5.82V149h9.51v14h5.78V129.62h-5.78ZM463.18,113q-10.4,12.81-25.32,12.81H411.4V37.26h26.46q14.73,0,25.32,13t10.58,31.21Q473.76,99.92,463.18,113Zm130.21,0Q583,125.76,568.06,125.76T542.74,113q-10.59-13-10.58-31.44,0-18.16,10.58-31.21t25.32-13q14.75,0,25.33,13T604,81.51Q604,99.92,593.39,113Z"/><path class="cls-1" d="M785.53,129.62H779V163h6.54a17.76,17.76,0,0,0,4.94-.59,10.82,10.82,0,0,0,3.7-1.92,14.69,14.69,0,0,0,4.54-5.93,20.58,20.58,0,0,0,1.55-8.25q0-7.76-3.91-12.22T785.53,129.62Zm6.6,23.69a7.55,7.55,0,0,1-6,2.53h-1.3V136.73h1.3a7.51,7.51,0,0,1,6,2.56,12.36,12.36,0,0,1,0,14Z"/><path class="cls-1" d="M120.76,0H40.63Q23.82,0,11.91,14.67T0,50.07Q0,70.8,11.91,85.47t28.72,14.67H82.21a9.18,9.18,0,0,1,7.37,3.73,15.16,15.16,0,0,1,0,18.16,9.18,9.18,0,0,1-7.37,3.73H0V163H82.21q16.82,0,28.72-14.67a51.84,51.84,0,0,0,9.83-19.3v34H151V0H120.76Zm0,96.85a51.77,51.77,0,0,0-9.83-19.3Q99,62.88,82.21,62.88H40.63a9.15,9.15,0,0,1-7.37-3.73,13.91,13.91,0,0,1-3-9.08,13.91,13.91,0,0,1,3-9.08,9.18,9.18,0,0,1,7.37-3.73h80.13Z"/><path class="cls-1" d="M398,206V171.06h9.28q9.78,0,15.33,4.67t5.54,12.8a16.29,16.29,0,0,1-8.63,14.85,17.92,17.92,0,0,1-5.24,2,33.62,33.62,0,0,1-7,.62Zm8.24-7.5h1.83q5.47,0,8.56-2.65a10.26,10.26,0,0,0,0-14.68q-3.09-2.69-8.56-2.68h-1.83Z"/><path class="cls-1" d="M434,206V171.06H455.5v7.2H442.07v6.32h11.5v7.16h-11.5v6.91h13.62V206Z"/><path class="cls-1" d="M460.47,196.12A30.34,30.34,0,0,0,466,198.9a13.17,13.17,0,0,0,4.4.79,5.83,5.83,0,0,0,3.48-.95,2.91,2.91,0,0,0,1.32-2.45c0-1.43-1.56-3-4.68-4.82l-1.16-.67L467,189.47a14.79,14.79,0,0,1-5.11-4.41,9.71,9.71,0,0,1-1.66-5.57,8.67,8.67,0,0,1,3.18-6.92,12.26,12.26,0,0,1,8.22-2.7,20.55,20.55,0,0,1,4,.44,37.11,37.11,0,0,1,4.82,1.35v8.19a27.66,27.66,0,0,0-4.79-2.46,11.33,11.33,0,0,0-3.86-.86,4.49,4.49,0,0,0-2.77.76,2.41,2.41,0,0,0-1,2.06,2.78,2.78,0,0,0,.6,1.71,5.37,5.37,0,0,0,1.81,1.44l4.09,2.27q5.14,2.85,6.91,5.26a9.37,9.37,0,0,1,1.77,5.71,10.57,10.57,0,0,1-3.48,8.25,13.25,13.25,0,0,1-9.25,3.15,24.52,24.52,0,0,1-4.24-.41,40.13,40.13,0,0,1-5-1.28Z"/><path class="cls-1" d="M489.34,206V171.06h8.34V206Z"/><path class="cls-1" d="M535.5,186.6v17a37,37,0,0,1-6.86,2.65,25.18,25.18,0,0,1-6.47.89,18.83,18.83,0,0,1-13.17-32,18.36,18.36,0,0,1,13.51-5.31,19.9,19.9,0,0,1,11.25,3.4l-.89,8.75a17.52,17.52,0,0,0-4.84-3.6,11.74,11.74,0,0,0-5.06-1.15,10.45,10.45,0,0,0-7.79,3.15,10.77,10.77,0,0,0-3.08,7.87,11.34,11.34,0,0,0,3,8.11,10.11,10.11,0,0,0,7.68,3.15,12.65,12.65,0,0,0,2.19-.2,20.85,20.85,0,0,0,2.32-.55v-5.09h-6.63V186.6Z"/><path class="cls-1" d="M542.42,206V169.92h.79L565,190.31V171.06h7.69v36.27H572l-21.84-20.39V206Z"/><path class="cls-1" d="M593.35,196.12a30.34,30.34,0,0,0,5.48,2.78,13.21,13.21,0,0,0,4.4.79,5.86,5.86,0,0,0,3.49-.95,2.92,2.92,0,0,0,1.31-2.45c0-1.43-1.56-3-4.68-4.82l-1.15-.67-2.37-1.33a14.88,14.88,0,0,1-5.11-4.41,9.79,9.79,0,0,1-1.66-5.57,8.67,8.67,0,0,1,3.18-6.92,12.26,12.26,0,0,1,8.22-2.7,20.64,20.64,0,0,1,4,.44,38,38,0,0,1,4.82,1.35v8.19a28.09,28.09,0,0,0-4.8-2.46,11.28,11.28,0,0,0-3.86-.86,4.51,4.51,0,0,0-2.77.76,2.44,2.44,0,0,0-1,2.06,2.78,2.78,0,0,0,.6,1.71,5.47,5.47,0,0,0,1.81,1.44l4.1,2.27q5.13,2.85,6.9,5.26a9.31,9.31,0,0,1,1.78,5.71,10.58,10.58,0,0,1-3.49,8.25,13.24,13.24,0,0,1-9.24,3.15,24.43,24.43,0,0,1-4.24-.41,39.7,39.7,0,0,1-5-1.28Z"/><path class="cls-1" d="M629.24,206V178.36H618.13v-7.3h30.51v7.3H637.58V206Z"/><path class="cls-1" d="M660.55,171.06v19.21q0,4.62,1.7,6.93a6,6,0,0,0,5.15,2.3,6.15,6.15,0,0,0,5.07-2.15q1.75-2.15,1.75-6.24V171.06h7.45v20.05q0,7.57-3.88,11.8T667,207.14q-7,0-10.83-4.2t-3.87-11.78v-20.1Z"/><path class="cls-1" d="M689.33,206V171.06h9.28q9.79,0,15.33,4.67t5.55,12.8a16.34,16.34,0,0,1-8.63,14.85,18.09,18.09,0,0,1-5.25,2,33.55,33.55,0,0,1-7,.62Zm8.25-7.5h1.83c3.64,0,6.5-.88,8.55-2.65a10.26,10.26,0,0,0,0-14.68c-2.05-1.79-4.91-2.68-8.55-2.68h-1.83Z"/><path class="cls-1" d="M725.42,206V171.06h8.34V206Z"/><path class="cls-1" d="M739.73,188.53a19.65,19.65,0,0,1,1.34-7.27A18.41,18.41,0,0,1,745,175.2a17,17,0,0,1,5.71-3.92,17.67,17.67,0,0,1,6.83-1.36,17.82,17.82,0,0,1,16.5,11.29,21.13,21.13,0,0,1,.39,13.49,17.41,17.41,0,0,1-2.72,5.28,17.84,17.84,0,0,1-6.28,5.28A17.44,17.44,0,0,1,745,201.81a18.23,18.23,0,0,1-3.94-6A19.42,19.42,0,0,1,739.73,188.53Zm8.58,0a11.22,11.22,0,0,0,2.67,7.63,8.58,8.58,0,0,0,13.15,0,12.4,12.4,0,0,0,0-15.32,8.58,8.58,0,0,0-13.15,0A11.3,11.3,0,0,0,748.31,188.53Z"/></g></g></svg>